<?xml version="1.0" encoding="utf-8"?>
<!-- Generator: Adobe Illustrator 30.2.1, SVG Export Plug-In . SVG Version: 9.03 Build 0)  -->
<svg version="1.0" id="Calque_1" xmlns="http://www.w3.org/2000/svg" xmlns:xlink="http://www.w3.org/1999/xlink" x="0px" y="0px"
	 viewBox="0 0 2000 2000" style="enable-background:new 0 0 2000 2000;" xml:space="preserve">
<style type="text/css">
	.st0{fill:#C39F6A;}
</style>
<path class="st0" d="M1935.6,40c-23.5-39-74.1-51.6-113.1-28.2c-10.1,6.1-19.3,12.8-28.4,19.8c-41.5,31-84.9,80.8-119.9,118.3
	c-307.6,331.7-586.3,692.7-816.2,1083.4c-22.9,38-46.6,79.8-65.8,119.8c-18.5,37.8-38.2,79.4-55.7,117.8
	c-121-221.4-311.3-464.4-537.1-563.9c-90.3-37.4-179.7,57.7-135,146c13.3,26,28.7,50.3,44.2,74.8c75.5,119,164.2,227.6,242.7,344.1
	c99.7,145.9,183.7,300.4,264.9,457c55.9,105.6,214.4,89.7,247.8-26.1c56-117.8,113.6-234.2,175.1-349
	c19.7-37.2,42.4-76.9,61.3-114.4c18.4-36.8,39-79.4,58.1-116c158.4-310,348.4-602.4,553.8-884.1c34.8-47.5,82.4-111.8,118-158.8
	c22.7-30.4,59-75.1,78.4-106.7c12.1-19,23.5-38.4,32.3-59.5C1950.7,90.9,1949.6,63.4,1935.6,40z"/>
</svg>
