<?xml version="1.0" encoding="utf-8"?>
<!-- Generator: Adobe Illustrator 30.2.1, SVG Export Plug-In . SVG Version: 9.03 Build 0)  -->
<svg version="1.0" id="Calque_1" xmlns="http://www.w3.org/2000/svg" xmlns:xlink="http://www.w3.org/1999/xlink" x="0px" y="0px"
	 viewBox="0 0 790.6 790.6" style="enable-background:new 0 0 790.6 790.6;" xml:space="preserve">
<style type="text/css">
	.st0{fill:#FFFFFF;}
	.st1{fill:url(#SVGID_1_);}
	.st2{fill:url(#SVGID_00000178886129947291002340000013285427437670792843_);}
	.st3{fill:url(#SVGID_00000120539410797722729570000006989179454458860190_);}
	.st4{opacity:0.4;}
	.st5{fill:#25190E;}
	.st6{fill:url(#SVGID_00000011021182767987726960000010351672587320738976_);}
	.st7{fill:url(#SVGID_00000101097210751681391080000008923225872715703445_);}
	.st8{fill:url(#SVGID_00000035507229652361375180000014685129969639531945_);}
	.st9{opacity:0.8;}
	.st10{fill:url(#SVGID_00000126295071360787535120000001973958494009873085_);}
	.st11{fill:url(#SVGID_00000115475483103163812110000010359624031747798191_);}
	.st12{opacity:0.1;fill:url(#SVGID_00000093864663817814238430000012303850471136051587_);enable-background:new    ;}
</style>
<g>
	<path class="st0" d="M381.7,786.5c-92.5-48.1-166.1-113.3-218.8-193.9c-42.1-64.3-70.8-138.3-85.3-219.9
		c-12.8-72-11.9-136.9-9-178.6c3.3-45.7,9.6-74.2,9.9-75.4l2.1-9.5l7.4-6.4c3.1-2.7,31.9-27,83.7-51.7
		C219.8,28.2,297.6,0.9,395.3,0.9c97.7,0,175.5,27.3,223.6,50.3c51.8,24.7,80.6,49,83.7,51.7l7.4,6.4l2.1,9.5
		c0.3,1.2,6.6,29.8,9.9,75.4c3,41.7,3.9,106.5-9,178.6c-14.5,81.6-43.2,155.5-85.3,219.9c-52.7,80.5-126.3,145.8-218.8,193.9
		l-13.6,7.1L381.7,786.5z M142.9,149.9c-4.9,28.8-16.2,114.3,1.6,214C172.7,521,257,639.3,395.2,715.7
		C533.5,639.3,617.8,521,645.9,363.9c17.9-99.7,6.5-185.2,1.6-214c-10.5-7.7-31.5-21.9-61.2-36C545.2,94.3,478.7,71,395.2,71
		c-83.8,0-150.5,23.4-191.7,43.1C174,128.2,153.3,142.2,142.9,149.9z"/>
	<path class="st0" d="M390.9,768.7c-89.4-46.5-160.5-109.4-211.3-187.1c-40.6-62.1-68.3-133.5-82.3-212.4
		c-12.5-70-11.6-133.1-8.7-173.6c3.2-44.1,9.2-71.3,9.5-72.4l0.7-3.1l2.4-2.1c1.2-1,28.9-24.8,79.2-48.8c46.2-22,121-48.3,215-48.3
		s168.7,26.3,215,48.3c50.3,24,78.1,47.8,79.2,48.8l2.4,2.1l0.7,3.1c0.3,1.1,6.3,28.4,9.5,72.4c2.9,40.6,3.7,103.6-8.7,173.6
		c-14,78.9-41.7,150.4-82.3,212.4c-50.8,77.6-121.8,140.6-211.3,187.1l-4.4,2.3L390.9,768.7z M124.6,138.7
		c-3.6,18.3-20.2,114.6,0.2,228.7c29.9,167,120.9,291.8,270.4,371c149.5-79.2,240.5-204,270.4-371c20.4-114.1,3.8-210.4,0.2-228.7
		c-7.5-6-32.2-24.6-70.9-42.9C551.9,75.4,482.4,51,395.2,51c-87.5,0-157.3,24.5-200.4,45C156.4,114.4,132.1,132.7,124.6,138.7z"/>
	<g>
		<g>
			
				<linearGradient id="SVGID_1_" gradientUnits="userSpaceOnUse" x1="-42.8932" y1="-760.7804" x2="-537.8627" y2="-1322.163" gradientTransform="matrix(1 0 0 1 702.3622 1369.6711)">
				<stop  offset="0" style="stop-color:#FAE778"/>
				<stop  offset="0.3" style="stop-color:#61420F"/>
				<stop  offset="0.6" style="stop-color:#F8ED9D"/>
				<stop  offset="0.7" style="stop-color:#D3C073"/>
				<stop  offset="0.8" style="stop-color:#6A4A11"/>
				<stop  offset="0.9" style="stop-color:#817543"/>
			</linearGradient>
			<path class="st1" d="M683.2,125.2c0,0-109.6-94.8-287.9-94.8s-287.9,94.8-287.9,94.8s-97.8,434.5,287.9,635
				C781,559.7,683.2,125.2,683.2,125.2L683.2,125.2z M395.2,749.2C21.2,554.8,116,133.4,116,133.4s106.3-91.9,279.2-91.9
				s279.2,91.9,279.2,91.9S769.3,554.8,395.2,749.2L395.2,749.2z"/>
			
				<linearGradient id="SVGID_00000155827741780807908600000005322112667757400988_" gradientUnits="userSpaceOnUse" x1="-44.1485" y1="-759.6653" x2="-539.1814" y2="-1321.0477" gradientTransform="matrix(1 0 0 1 702.3622 1369.6711)">
				<stop  offset="0" style="stop-color:#FAE778"/>
				<stop  offset="0.3" style="stop-color:#61420F"/>
				<stop  offset="0.6" style="stop-color:#F8ED9D"/>
				<stop  offset="0.7" style="stop-color:#D3C073"/>
				<stop  offset="0.8" style="stop-color:#6A4A11"/>
				<stop  offset="0.9" style="stop-color:#817543"/>
			</linearGradient>
			<path style="fill:url(#SVGID_00000155827741780807908600000005322112667757400988_);" d="M589.9,105.5
				C548,85.7,480.2,62.2,395.3,62.2s-152.8,23.5-194.7,43.3c-32.3,15.2-54.7,30.6-65.2,38.5c-4.8,27.4-17.4,117,1.5,221.4
				c13.1,72.7,38.8,138.2,76.1,195c44.3,67.4,105.5,122.8,182.1,164.8c76.7-42,138-97.4,182.2-164.8c37.4-56.8,63-122.4,76.1-195
				c18.9-104.4,6.3-194,1.5-221.4c-10.4-7.8-32.8-23.3-65.2-38.6L589.9,105.5z"/>
		</g>
		
			<linearGradient id="SVGID_00000049940804009411879200000010204565099118385061_" gradientUnits="userSpaceOnUse" x1="-555.5868" y1="-977.1111" x2="-58.8393" y2="-977.1111" gradientTransform="matrix(1 0 0 1 702.3622 1369.6711)">
			<stop  offset="0" style="stop-color:#594A20"/>
			<stop  offset="0" style="stop-color:#F2BA2C"/>
			<stop  offset="0.2" style="stop-color:#A56D1B"/>
			<stop  offset="0.4" style="stop-color:#A6661A"/>
			<stop  offset="0.5" style="stop-color:#DDCD93"/>
			<stop  offset="0.6" style="stop-color:#CB9B49"/>
			<stop  offset="0.8" style="stop-color:#BE7D19"/>
			<stop  offset="1" style="stop-color:#BFB67F"/>
		</linearGradient>
		<path style="fill:url(#SVGID_00000049940804009411879200000010204565099118385061_);" d="M579.2,124.5c-39.6-18.7-103.7-41-184-41
			s-144.4,22.2-184,41c-26.8,12.6-46.3,25.4-57.2,33.2c-4.7,29.4-14.7,111.7,2.3,206c12.5,69,36.7,131.2,72.1,185
			c40.8,62,96.8,113.5,166.7,152.9c70-39.4,126-90.8,166.7-152.9c35.4-53.8,59.6-116,72.1-185c17.1-94.3,7.1-176.5,2.3-206
			C625.5,149.9,606,137.1,579.2,124.5L579.2,124.5z"/>
		<g class="st4">
			<path class="st5" d="M579.2,124.5c-39.6-18.7-103.7-41-184-41s-144.4,22.2-184,41c-26.8,12.6-46.3,25.4-57.2,33.2
				c-4.7,29.4-14.7,111.7,2.3,206c12.5,69,36.7,131.2,72.1,185c40.8,62,96.8,113.5,166.7,152.9c70-39.4,126-90.8,166.7-152.9
				c35.4-53.8,59.6-116,72.1-185c17.1-94.3,7.1-176.5,2.3-206C625.5,149.9,606,137.1,579.2,124.5L579.2,124.5z"/>
		</g>
		
			<linearGradient id="SVGID_00000044896119626423994900000008138356564970277018_" gradientUnits="userSpaceOnUse" x1="-590.1604" y1="-673.4897" x2="-50.8944" y2="-1435.754" gradientTransform="matrix(1 0 0 1 702.3622 1369.6711)">
			<stop  offset="0" style="stop-color:#FAE778"/>
			<stop  offset="0.3" style="stop-color:#61420F"/>
			<stop  offset="0.6" style="stop-color:#F8ED9D"/>
			<stop  offset="0.7" style="stop-color:#D3C073"/>
			<stop  offset="0.8" style="stop-color:#6A4A11"/>
			<stop  offset="0.9" style="stop-color:#817543"/>
		</linearGradient>
		<path style="fill:url(#SVGID_00000044896119626423994900000008138356564970277018_);" d="M678.4,129.7c0,0-107.7-93.2-283.1-93.2
			s-283.1,93.2-283.1,93.2S16,557,395.2,754.2C774.5,557,678.4,129.7,678.4,129.7L678.4,129.7z M653.5,365.2
			c-13.1,72.7-38.8,138.2-76.1,195C533.1,627.6,471.9,683,395.3,725c-76.7-41.9-138-97.4-182.2-164.7
			c-37.4-56.9-63-122.4-76.1-195.1c-18.9-104.4-6.4-194-1.5-221.4c10.4-7.8,32.8-23.3,65.2-38.6C242.6,85.5,310.4,62,395.3,62
			S548,85.5,589.9,105.3c32.3,15.3,54.7,30.7,65.2,38.6C659.9,171.2,672.4,260.7,653.5,365.2L653.5,365.2z"/>
	</g>
	
		<linearGradient id="SVGID_00000103958087969940390860000008781698751642699948_" gradientUnits="userSpaceOnUse" x1="16.9157" y1="-796.9097" x2="-633.0598" y2="-1157.4736" gradientTransform="matrix(1 0 0 1 702.3622 1369.6711)">
		<stop  offset="0" style="stop-color:#FAE778"/>
		<stop  offset="0.3" style="stop-color:#61420F"/>
		<stop  offset="0.6" style="stop-color:#F8ED9D"/>
		<stop  offset="0.7" style="stop-color:#D3C073"/>
		<stop  offset="0.8" style="stop-color:#6A4A11"/>
		<stop  offset="0.9" style="stop-color:#817543"/>
	</linearGradient>
	<path style="fill:url(#SVGID_00000103958087969940390860000008781698751642699948_);" d="M386.2,109.8
		c-71.2,1.6-128,21.5-163.8,38.4c-18.7,8.9-33.5,17.6-44.3,24.7c-4.8,35.1-10.7,105.9,3.9,186.3c11.8,65.5,34.8,124.4,68.2,175.4
		c34.2,51.9,79.8,96,135.9,131.5L386.2,109.8L386.2,109.8z"/>
	
		<linearGradient id="SVGID_00000134936023157263168070000005619099870351381156_" gradientUnits="userSpaceOnUse" x1="-168.6593" y1="-891.6443" x2="-722.5222" y2="-1225.4785" gradientTransform="matrix(1 0 0 1 702.3622 1369.6711)">
		<stop  offset="0" style="stop-color:#FAE778"/>
		<stop  offset="0.3" style="stop-color:#61420F"/>
		<stop  offset="0.6" style="stop-color:#F8ED9D"/>
		<stop  offset="0.7" style="stop-color:#D3C073"/>
		<stop  offset="0.8" style="stop-color:#6A4A11"/>
		<stop  offset="0.9" style="stop-color:#817543"/>
	</linearGradient>
	<path style="fill:url(#SVGID_00000134936023157263168070000005619099870351381156_);" d="M379.6,653.9
		c-50.8-33.8-92.4-75.1-123.9-123.1c-33-50.2-55.6-108.3-67.3-173c-13.9-77.3-8.9-145.7-4.2-181.4c12.6-8.1,26.3-15.7,41-22.6
		c33.5-15.7,87.1-34.8,154.4-37.4L379.6,653.9L379.6,653.9z"/>
	<g class="st9">
		<path class="st5" d="M612.3,172.9c-10.7-7.1-25.6-15.9-44.3-24.7c-35.6-16.8-92.5-36.6-163.7-38.3v556.1
			c56.1-35.4,101.8-79.5,135.9-131.5c33.4-50.9,56.4-109.9,68.2-175.4C622.9,278.7,617.1,207.9,612.3,172.9L612.3,172.9z"/>
	</g>
	
		<linearGradient id="SVGID_00000132089011805463133870000013887298291602793915_" gradientUnits="userSpaceOnUse" x1="32.5851" y1="-825.1404" x2="-617.3902" y2="-1185.7042" gradientTransform="matrix(1 0 0 1 702.3622 1369.6711)">
		<stop  offset="0" style="stop-color:#594A20"/>
		<stop  offset="0" style="stop-color:#F2BA2C"/>
		<stop  offset="0.2" style="stop-color:#A56D1B"/>
		<stop  offset="0.4" style="stop-color:#A6661A"/>
		<stop  offset="0.5" style="stop-color:#DDCD93"/>
		<stop  offset="0.6" style="stop-color:#CB9B49"/>
		<stop  offset="0.8" style="stop-color:#BE7D19"/>
		<stop  offset="1" style="stop-color:#BFB67F"/>
	</linearGradient>
	<path style="fill:url(#SVGID_00000132089011805463133870000013887298291602793915_);" d="M612.3,172.9
		c-10.7-7.1-25.6-15.9-44.3-24.7c-35.6-16.8-92.5-36.6-163.7-38.3v556.1c56.1-35.4,101.8-79.5,135.9-131.5
		c33.4-50.9,56.4-109.9,68.2-175.4C622.9,278.7,617.1,207.9,612.3,172.9L612.3,172.9z"/>
	
		<linearGradient id="SVGID_00000171696733212793783550000017004704230826740357_" gradientUnits="userSpaceOnUse" x1="32.5851" y1="-825.1404" x2="-617.3902" y2="-1185.7042" gradientTransform="matrix(1 0 0 1 702.3622 1369.6711)">
		<stop  offset="0" style="stop-color:#594A20"/>
		<stop  offset="0" style="stop-color:#F2BA2C"/>
		<stop  offset="0.2" style="stop-color:#A56D1B"/>
		<stop  offset="0.4" style="stop-color:#A6661A"/>
		<stop  offset="0.5" style="stop-color:#DDCD93"/>
		<stop  offset="0.6" style="stop-color:#CB9B49"/>
		<stop  offset="0.8" style="stop-color:#BE7D19"/>
		<stop  offset="1" style="stop-color:#BFB67F"/>
	</linearGradient>
	<path style="fill:url(#SVGID_00000171696733212793783550000017004704230826740357_);" d="M612.3,172.9
		c-10.7-7.1-25.6-15.9-44.3-24.7c-35.6-16.8-92.5-36.6-163.7-38.3v556.1c56.1-35.4,101.8-79.5,135.9-131.5
		c33.4-50.9,56.4-109.9,68.2-175.4C622.9,278.7,617.1,207.9,612.3,172.9L612.3,172.9z"/>
	<g class="st9">
		<path class="st5" d="M410.9,116.4c67.3,2.7,120.8,21.7,154.4,37.5c14.7,6.9,28.4,14.5,41,22.6c4.7,35.6,9.8,104-4.2,181.4
			c-11.7,64.6-34.3,122.8-67.3,173c-31.4,47.8-73.1,89.2-123.9,123V116.4L410.9,116.4z"/>
	</g>
	<path class="st5" d="M612.3,172.9c-10.7-7.1-25.6-15.9-44.3-24.7c-35.6-16.8-92.5-36.6-163.7-38.3v556.1
		c56.1-35.4,101.8-79.5,135.9-131.5c33.4-50.9,56.4-109.9,68.2-175.4C622.9,278.7,617.1,207.9,612.3,172.9L612.3,172.9z M602.1,358
		c-11.7,64.6-34.3,122.8-67.3,173c-31.5,47.9-73.1,89.3-123.9,123.1V116.4c67.3,2.7,120.8,21.7,154.4,37.5
		c14.7,6.9,28.4,14.5,41,22.6C611,212.2,616.1,280.6,602.1,358L602.1,358z"/>
	
		<linearGradient id="SVGID_00000133487896790956887920000009055578437635236757_" gradientUnits="userSpaceOnUse" x1="-206.7147" y1="-1019.2642" x2="-420.8034" y2="-1124.3496" gradientTransform="matrix(1 0 0 1 702.3622 1369.6711)">
		<stop  offset="0" style="stop-color:#FFFFFF"/>
		<stop  offset="1" style="stop-color:#FFFFFF;stop-opacity:0"/>
	</linearGradient>
	<path style="opacity:0.1;fill:url(#SVGID_00000133487896790956887920000009055578437635236757_);enable-background:new    ;" d="
		M404.4,543.6l183.7-385.3c-6.1-3.3-12.7-6.7-19.9-10.2c-35.6-16.8-92.5-36.7-163.8-38.4V543.6L404.4,543.6z"/>
</g>
</svg>
