<?xml version="1.0" encoding="utf-8"?>
<!-- Generator: Adobe Illustrator 30.2.1, SVG Export Plug-In . SVG Version: 9.03 Build 0)  -->
<svg version="1.0" id="Calque_1" xmlns="http://www.w3.org/2000/svg" xmlns:xlink="http://www.w3.org/1999/xlink" x="0px" y="0px"
	 viewBox="0 0 2000 790.6" style="enable-background:new 0 0 2000 790.6;" xml:space="preserve">
<style type="text/css">
	.st0{enable-background:new    ;}
	.st1{fill:url(#SVGID_1_);}
	.st2{fill:url(#SVGID_00000047038721067264224890000011544586231826704536_);}
	.st3{fill:url(#SVGID_00000130606715219540442520000014996094150688658342_);}
	.st4{opacity:0.4;}
	.st5{fill:#25190E;}
	.st6{fill:url(#SVGID_00000046333992971746914470000008341805165796530847_);}
	.st7{fill:url(#SVGID_00000016783945750437139210000014987073337385719185_);}
	.st8{fill:url(#SVGID_00000165918919422418945110000013214257427170442911_);}
	.st9{opacity:0.8;}
	.st10{fill:url(#SVGID_00000054961044386643421980000006205481902116524459_);}
	.st11{fill:url(#SVGID_00000094594808288159023660000016969973006148536981_);}
	.st12{opacity:0.1;fill:url(#SVGID_00000002360053899697860920000002867866848745036698_);enable-background:new    ;}
</style>
<g>
	<g>
		<g class="st0">
			<g class="st0">
				<path d="M821.7,137.9c0-11.3,2.8-20.8,8.2-28.7c5.6-7.8,12.8-14.2,21.9-19.1c9.1-4.9,19.7-8.3,31.6-10.4s24.2-3.1,36.8-3.1
					c21,0,37.9,2.1,50.6,6.4s22.4,9.6,29.1,16.2c6.7,6.6,11.1,13.7,13.3,21.5c2.2,7.8,3.3,15.4,3.3,22.5h-37.7c0-3.9-0.1-9.1-0.4-16
					s-2.1-13.5-5.4-20.3c-3.4-6.7-9-12.4-17.2-17.4c-8-4.9-20-7.3-35.6-7.3s-20.2,1.2-28.1,3.7s-14.5,5.8-19.7,9.8
					c-5.2,4.1-8.9,8.8-11.3,14.3c-2.5,5.4-3.7,11-3.7,17c0,6,2.5,15.4,7.5,21.5c5,6.2,11.5,11.7,19.7,16.8c8,5.1,17.4,9.7,27.7,14.1
					c10.4,4.4,20.9,8.9,31.8,13.7c10.8,4.8,21.3,9.9,31.8,15.4c10.4,5.6,19.7,11.9,27.7,19.3c8,7.3,14.6,15.7,19.7,25.2
					c5,9.5,7.5,20.5,7.5,33.2s-2.8,22.4-8.2,31c-5.6,8.6-12.8,15.6-21.9,20.9s-19.6,9.3-31.4,11.9c-11.8,2.6-24.1,3.9-37,3.9
					c-12.9,0-33.1-1.4-45.3-4.1c-12.2-2.7-22.2-6.3-30.3-10.6c-7.9-4.4-14.1-9.3-18.3-15c-4.3-5.7-7.3-11.5-9.2-17.6
					c-1.9-6.1-3-11.9-3.3-17.7c-0.3-5.8-0.4-11.1-0.4-16h37.3c0,3.4-0.2,7.5-0.6,12.5c-0.4,5-0.3,10.2,0.4,15.8
					c0.6,5.6,2.1,11,4.3,16.6c2.2,5.6,5.9,10.4,11,14.8c5.2,4.4,12.1,7.9,20.8,10.8c8.7,2.8,19.9,4.3,33.6,4.3s20.5-1.6,28.5-4.7
					c7.9-3.1,14.6-7,19.9-11.9c5.3-4.9,9.1-10.5,11.5-17c2.5-6.5,3.7-12.8,3.7-19.3c0-13.1-4.3-24.1-12.9-33.2
					c-8.6-9-19.4-17-32.2-23.9c-12.8-6.9-26.8-13.4-42-19.5c-15.2-6.1-29.2-12.6-42-19.9c-12.8-7.1-23.5-15.6-32.2-25.2
					c-8.6-9.6-12.9-21.5-12.9-35.6L821.7,137.9z"/>
				<path d="M1185,76.7c20.5,0,38.6,3.6,54.1,10.8c15.6,7.2,28.5,17,38.9,29.5c10.4,12.5,18.3,27.1,23.5,43.9
					c5.3,16.8,7.9,35,7.9,54.5s-2.7,37.7-7.9,54.5s-13.1,31.5-23.5,43.9c-10.4,12.4-23.3,22.3-38.9,29.5
					c-15.5,7.1-33.6,10.8-54.1,10.8c-20.5,0-38.6-3.6-54.1-10.8c-15.6-7.1-28.5-17-38.9-29.5c-10.4-12.4-18.3-27.1-23.5-43.9
					c-5.3-16.8-7.9-34.9-7.9-54.5s2.7-37.7,7.9-54.5s13.1-31.5,23.5-43.9c10.4-12.4,23.3-22.2,38.9-29.5
					C1146.4,80.4,1164.4,76.7,1185,76.7L1185,76.7z M1185.4,347.9c12.6,0,24.1-2.8,34.6-8.2c10.5-5.6,19.7-13.9,27.4-25
					c7.7-11.2,13.7-25,17.9-41.6c4.3-16.6,6.4-35.7,6.4-57.6s-2.1-41.3-6.4-57.8c-4.3-16.4-10.2-30.3-17.9-41.4
					c-7.7-11.2-16.8-19.6-27.4-25c-10.5-5.6-22.1-8.2-34.6-8.2c-12.5,0-24.2,2.8-34.8,8.2c-10.6,5.6-19.9,13.9-27.7,25
					c-7.8,11.2-13.9,25-18.3,41.4c-4.4,16.5-6.6,35.7-6.6,57.8s2.2,41,6.6,57.6c4.4,16.6,10.4,30.5,18.3,41.6
					c7.8,11.2,17.1,19.6,27.7,25C1161.1,345.2,1172.8,347.9,1185.4,347.9z"/>
				<path d="M1517,350.2h-176.4V80.6h37.3V344H1517V350.2z"/>
				<path d="M1708.1,252.4h-121.3l-36.2,97.9h-6.2l100.2-269.6h40l100.2,269.6h-40.1L1708.1,252.4L1708.1,252.4z M1706.3,246.5
					L1647.7,89l-58.6,157.5H1706.3z"/>
				<path d="M1812.2,350.2V80.6h102.4c8.9,0,18.5,1.3,28.5,3.9s19.3,6.8,27.7,12.7c8.4,6,15.5,13.6,20.9,23.1
					c5.6,9.5,8.2,21,8.2,34.6s-1.6,19-4.7,26.8c-3.1,7.8-7.1,14.7-12.3,20.6s-11,10.8-17.5,14.8c-6.6,4-13.4,7.1-20.6,9.4
					c7.4,1.3,14.5,3.7,21.1,7.1c6.7,3.5,12.5,8.1,17.6,14.1c5,6,9,13.2,11.9,21.7c3,8.6,4.5,18.8,4.5,30.6v50.1h-37.3v-53.2
					c0-7.9-0.3-15.9-1-23.7c-0.6-7.8-2.2-14.8-4.7-20.9c-2.5-6.2-6-11.2-10.6-15c-4.7-3.9-10.8-5.8-18.5-5.8h-78.6v118.6H1812
					L1812.2,350.2z M1890.4,225.4c25.4,0,43.8-5.7,55.1-17s17-29.2,17-53.5s-5.7-41.9-17-52.4c-11.3-10.5-29.7-15.8-55.1-15.8h-40.8
					v138.7L1890.4,225.4L1890.4,225.4z"/>
			</g>
		</g>
		<g class="st0">
			<g class="st0">
				<path d="M827.3,709.9V440.4h37.4v131.6h135.9V440.4h37.4v269.5h-37.4V578.1H864.7v131.7H827.3L827.3,709.9z"/>
				<path d="M1193.3,436.6c20.5,0,38.5,3.7,54.1,10.8s28.5,17,38.9,29.4c10.4,12.5,18.3,27.1,23.5,43.9c5.2,16.9,7.9,35,7.9,54.5
					s-2.7,37.7-7.9,54.5c-5.3,16.9-13.1,31.5-23.5,43.9c-10.4,12.5-23.3,22.2-38.9,29.5c-15.5,7.2-33.6,10.8-54.1,10.8
					c-20.5,0-38.5-3.7-54.1-10.8c-15.5-7.2-28.5-17-38.9-29.5c-10.4-12.4-18.3-27-23.5-43.9c-5.2-16.9-7.9-35-7.9-54.5
					s2.7-37.7,7.9-54.5c5.2-16.7,13.1-31.5,23.5-43.9c10.4-12.4,23.3-22.2,38.9-29.4S1172.8,436.6,1193.3,436.6z M1193.8,707.6
					c12.5,0,24.2-2.8,34.6-8.3c10.5-5.5,19.7-13.9,27.3-25c7.7-11.1,13.6-25,17.9-41.6c4.2-16.6,6.3-35.7,6.3-57.5
					s-2.1-41.3-6.3-57.8c-4.2-16.4-10.1-30.2-17.9-41.3c-7.7-11.1-16.9-19.5-27.3-25c-10.5-5.5-22.1-8.3-34.6-8.3
					c-12.5,0-24.2,2.8-34.9,8.3c-10.7,5.5-20,13.9-27.7,25c-7.9,11.1-13.9,25-18.3,41.3c-4.4,16.4-6.5,35.7-6.5,57.8
					c0,22.1,2.1,41,6.5,57.5c4.4,16.6,10.4,30.4,18.3,41.6c7.9,11.1,17,19.5,27.7,25C1169.6,704.8,1181.1,707.6,1193.8,707.6z"/>
				<path d="M1348.5,440.4h40.5l88.1,214.8l69.3-214.8h37.4v269.5h-37.4V460.5l-80.4,249.4h-6.5l-104.3-254v254h-6.2l-0.4-269.5
					H1348.5z"/>
				<path d="M1791.7,446.5h-139v125.1h100.1v6.2h-100.1v125.8h139v6.2h-176.3V440.4h176.3V446.5L1791.7,446.5z"/>
			</g>
		</g>
	</g>
	<g>
		<g>
			
				<linearGradient id="SVGID_1_" gradientUnits="userSpaceOnUse" x1="-92.3013" y1="2743.0256" x2="-628.4827" y2="3351.1497" gradientTransform="matrix(1 0 0 -1 702.3622 3369.6711)">
				<stop  offset="0" style="stop-color:#FAE778"/>
				<stop  offset="0.3" style="stop-color:#61420F"/>
				<stop  offset="0.6" style="stop-color:#F8ED9D"/>
				<stop  offset="0.7" style="stop-color:#D3C073"/>
				<stop  offset="0.8" style="stop-color:#6A4A11"/>
				<stop  offset="0.9" style="stop-color:#817543"/>
			</linearGradient>
			<path class="st1" d="M635.8,102.7c0,0-118.7-102.7-311.9-102.7S12,102.7,12,102.7S-93.9,573.4,323.9,790.6
				C741.7,573.4,635.8,102.7,635.8,102.7L635.8,102.7z M323.8,778.6C-81.3,568,21.3,111.6,21.3,111.6S136.5,12,323.8,12
				s302.5,99.6,302.5,99.6S729,568,323.8,778.6L323.8,778.6z"/>
			
				<linearGradient id="SVGID_00000117660797454760358580000001838073352337613742_" gradientUnits="userSpaceOnUse" x1="-93.6497" y1="2741.8279" x2="-629.8996" y2="3349.9517" gradientTransform="matrix(1 0 0 -1 702.3622 3369.6711)">
				<stop  offset="0" style="stop-color:#FAE778"/>
				<stop  offset="0.3" style="stop-color:#61420F"/>
				<stop  offset="0.6" style="stop-color:#F8ED9D"/>
				<stop  offset="0.7" style="stop-color:#D3C073"/>
				<stop  offset="0.8" style="stop-color:#6A4A11"/>
				<stop  offset="0.9" style="stop-color:#817543"/>
			</linearGradient>
			<path style="fill:url(#SVGID_00000117660797454760358580000001838073352337613742_);" d="M534.7,81.3
				c-45.4-21.4-118.8-46.9-210.8-46.9S158.4,59.9,113,81.3C78,97.8,53.7,114.5,42.4,123c-5.2,29.7-18.8,126.7,1.6,239.8
				c14.2,78.7,42,149.7,82.4,211.2c48,73,114.3,133,197.3,178.5C406.8,707,473.2,647,521.1,574c40.5-61.5,68.2-132.6,82.4-211.2
				c20.5-113.1,6.8-210.1,1.6-239.8c-11.3-8.5-35.5-25.2-70.6-41.8L534.7,81.3z"/>
		</g>
		
			<linearGradient id="SVGID_00000119833279701798258150000001459111902677069963_" gradientUnits="userSpaceOnUse" x1="-647.6519" y1="2977.3408" x2="-109.4084" y2="2977.3408" gradientTransform="matrix(1 0 0 -1 702.3622 3369.6711)">
			<stop  offset="0" style="stop-color:#594A20"/>
			<stop  offset="0" style="stop-color:#F2BA2C"/>
			<stop  offset="0.2" style="stop-color:#A56D1B"/>
			<stop  offset="0.4" style="stop-color:#A6661A"/>
			<stop  offset="0.5" style="stop-color:#DDCD93"/>
			<stop  offset="0.6" style="stop-color:#CB9B49"/>
			<stop  offset="0.8" style="stop-color:#BE7D19"/>
			<stop  offset="1" style="stop-color:#BFB67F"/>
		</linearGradient>
		<path style="fill:url(#SVGID_00000119833279701798258150000001459111902677069963_);" d="M523.1,101.9
			c-42.9-20.3-112.3-44.4-199.3-44.4s-156.4,24.1-199.3,44.4c-29,13.7-50.2,27.5-62,36c-5.1,31.9-15.9,121,2.5,223.2
			c13.5,74.7,39.8,142.1,78.1,200.4c44.2,67.2,104.9,122.9,180.6,165.6c75.8-42.7,136.5-98.4,180.6-165.6
			c38.3-58.3,64.6-125.7,78.1-200.4c18.5-102.2,7.7-191.2,2.5-223.2C573.3,129.4,552.1,115.6,523.1,101.9L523.1,101.9z"/>
		<g class="st4">
			<path class="st5" d="M523.1,101.9c-42.9-20.3-112.3-44.4-199.3-44.4s-156.4,24.1-199.3,44.4c-29,13.7-50.2,27.5-62,36
				c-5.1,31.9-15.9,121,2.5,223.2c13.5,74.7,39.8,142.1,78.1,200.4c44.2,67.2,104.9,122.9,180.6,165.6
				c75.8-42.7,136.5-98.4,180.6-165.6c38.3-58.3,64.6-125.7,78.1-200.4c18.5-102.2,7.7-191.2,2.5-223.2
				C573.3,129.4,552.1,115.6,523.1,101.9L523.1,101.9z"/>
		</g>
		
			<linearGradient id="SVGID_00000115507220183699574670000004110657861731105408_" gradientUnits="userSpaceOnUse" x1="-685.1562" y1="2648.4873" x2="-100.9903" y2="3474.2188" gradientTransform="matrix(1 0 0 -1 702.3622 3369.6711)">
			<stop  offset="0" style="stop-color:#FAE778"/>
			<stop  offset="0.3" style="stop-color:#61420F"/>
			<stop  offset="0.6" style="stop-color:#F8ED9D"/>
			<stop  offset="0.7" style="stop-color:#D3C073"/>
			<stop  offset="0.8" style="stop-color:#6A4A11"/>
			<stop  offset="0.9" style="stop-color:#817543"/>
		</linearGradient>
		<path style="fill:url(#SVGID_00000115507220183699574670000004110657861731105408_);" d="M630.6,107.5c0,0-116.7-101-306.7-101
			s-306.7,101-306.7,101S-87,570.4,323.8,784C734.7,570.4,630.6,107.5,630.6,107.5L630.6,107.5z M603.6,362.7
			c-14.2,78.7-42,149.7-82.4,211.2c-48,73-114.3,133-197.3,178.5C240.8,707,174.4,646.9,126.5,574C86,512.4,58.3,441.4,44.1,362.7
			c-20.5-113.1-6.9-210.1-1.6-239.8c11.3-8.4,35.5-25.2,70.6-41.8c45.4-21.4,118.8-46.9,210.8-46.9s165.4,25.5,210.8,46.9
			c35,16.6,59.3,33.3,70.6,41.8c5.2,29.6,18.8,126.6-1.6,239.8H603.6z"/>
	</g>
	
		<linearGradient id="SVGID_00000006690656914084013780000018129399986360214163_" gradientUnits="userSpaceOnUse" x1="-27.4678" y1="2782.2412" x2="-731.561" y2="3172.8259" gradientTransform="matrix(1 0 0 -1 702.3622 3369.6711)">
		<stop  offset="0" style="stop-color:#FAE778"/>
		<stop  offset="0.3" style="stop-color:#61420F"/>
		<stop  offset="0.6" style="stop-color:#F8ED9D"/>
		<stop  offset="0.7" style="stop-color:#D3C073"/>
		<stop  offset="0.8" style="stop-color:#6A4A11"/>
		<stop  offset="0.9" style="stop-color:#817543"/>
	</linearGradient>
	<path style="fill:url(#SVGID_00000006690656914084013780000018129399986360214163_);" d="M314,86c-77.1,1.7-138.7,23.3-177.4,41.6
		c-20.3,9.6-36.3,19.1-48,26.8c-5.2,38-11.6,114.7,4.2,201.8c12.8,70.9,37.7,134.8,73.9,190c37,56.2,86.4,104,147.2,142.4L314,86
		L314,86z"/>
	
		<linearGradient id="SVGID_00000163784351183440520290000013158017687400897189_" gradientUnits="userSpaceOnUse" x1="-228.5429" y1="2884.7764" x2="-828.5211" y2="3246.406" gradientTransform="matrix(1 0 0 -1 702.3622 3369.6711)">
		<stop  offset="0" style="stop-color:#FAE778"/>
		<stop  offset="0.3" style="stop-color:#61420F"/>
		<stop  offset="0.6" style="stop-color:#F8ED9D"/>
		<stop  offset="0.7" style="stop-color:#D3C073"/>
		<stop  offset="0.8" style="stop-color:#6A4A11"/>
		<stop  offset="0.9" style="stop-color:#817543"/>
	</linearGradient>
	<path style="fill:url(#SVGID_00000163784351183440520290000013158017687400897189_);" d="M306.9,675.4
		c-55-36.6-100.1-81.3-134.2-133.3c-35.7-54.4-60.2-117.3-72.9-187.4c-15.1-83.7-9.6-157.8-4.5-196.5c13.6-8.8,28.5-17,44.4-24.5
		C176,116.7,234.1,96,307,93.2L306.9,675.4L306.9,675.4z"/>
	<g class="st9">
		<path class="st5" d="M559,154.3c-11.6-7.7-27.7-17.2-48-26.8C472.4,109.3,410.8,87.8,333.7,86v602.4
			C394.5,650.1,444,602.3,480.9,546c36.2-55.1,61.1-119,73.9-190C570.5,269,564.2,192.3,559,154.3L559,154.3z"/>
	</g>
	
		<linearGradient id="SVGID_00000110457144100564219110000013674672740597275524_" gradientUnits="userSpaceOnUse" x1="-10.5387" y1="2812.7412" x2="-714.6318" y2="3203.3259" gradientTransform="matrix(1 0 0 -1 702.3622 3369.6711)">
		<stop  offset="0" style="stop-color:#594A20"/>
		<stop  offset="0" style="stop-color:#F2BA2C"/>
		<stop  offset="0.2" style="stop-color:#A56D1B"/>
		<stop  offset="0.4" style="stop-color:#A6661A"/>
		<stop  offset="0.5" style="stop-color:#DDCD93"/>
		<stop  offset="0.6" style="stop-color:#CB9B49"/>
		<stop  offset="0.8" style="stop-color:#BE7D19"/>
		<stop  offset="1" style="stop-color:#BFB67F"/>
	</linearGradient>
	<path style="fill:url(#SVGID_00000110457144100564219110000013674672740597275524_);" d="M559,154.3c-11.6-7.7-27.7-17.2-48-26.8
		C472.4,109.3,410.8,87.8,333.7,86v602.4C394.5,650.1,444,602.3,480.9,546c36.2-55.1,61.1-119,73.9-190
		C570.5,269,564.2,192.3,559,154.3L559,154.3z"/>
	
		<linearGradient id="SVGID_00000183955758202532840860000010227091675164979841_" gradientUnits="userSpaceOnUse" x1="-10.5387" y1="2812.7412" x2="-714.6318" y2="3203.3259" gradientTransform="matrix(1 0 0 -1 702.3622 3369.6711)">
		<stop  offset="0" style="stop-color:#594A20"/>
		<stop  offset="0" style="stop-color:#F2BA2C"/>
		<stop  offset="0.2" style="stop-color:#A56D1B"/>
		<stop  offset="0.4" style="stop-color:#A6661A"/>
		<stop  offset="0.5" style="stop-color:#DDCD93"/>
		<stop  offset="0.6" style="stop-color:#CB9B49"/>
		<stop  offset="0.8" style="stop-color:#BE7D19"/>
		<stop  offset="1" style="stop-color:#BFB67F"/>
	</linearGradient>
	<path style="fill:url(#SVGID_00000183955758202532840860000010227091675164979841_);" d="M559,154.3c-11.6-7.7-27.7-17.2-48-26.8
		C472.4,109.3,410.8,87.8,333.7,86v602.4C394.5,650.1,444,602.3,480.9,546c36.2-55.1,61.1-119,73.9-190
		C570.5,269,564.2,192.3,559,154.3L559,154.3z"/>
	<g class="st9">
		<path class="st5" d="M340.8,93.2c72.9,2.9,130.9,23.5,167.3,40.6c15.9,7.5,30.8,15.7,44.4,24.5c5.1,38.6,10.6,112.7-4.6,196.5
			c-12.7,70-37.2,133-72.9,187.4C441,594,395.8,638.8,340.8,675.4L340.8,93.2L340.8,93.2z"/>
	</g>
	<path class="st5" d="M559,154.3c-11.6-7.7-27.7-17.2-48-26.8C472.4,109.3,410.8,87.8,333.7,86v602.4
		C394.5,650.1,444,602.3,480.9,546c36.2-55.1,61.1-119,73.9-190C570.5,269,564.2,192.3,559,154.3L559,154.3z M547.9,354.9
		c-12.7,70-37.2,133-72.9,187.4c-34.1,51.9-79.2,96.7-134.2,133.3V93.2c72.9,2.9,130.9,23.5,167.3,40.6
		c15.9,7.5,30.8,15.7,44.4,24.5C557.6,196.9,563.1,271,547.9,354.9L547.9,354.9z"/>
	
		<linearGradient id="SVGID_00000178196364592603187510000002187158967061559688_" gradientUnits="userSpaceOnUse" x1="-269.7629" y1="3023.0273" x2="-501.6769" y2="3136.8623" gradientTransform="matrix(1 0 0 -1 702.3622 3369.6711)">
		<stop  offset="0" style="stop-color:#FFFFFF"/>
		<stop  offset="1" style="stop-color:#FFFFFF;stop-opacity:0"/>
	</linearGradient>
	<path style="opacity:0.1;fill:url(#SVGID_00000178196364592603187510000002187158967061559688_);enable-background:new    ;" d="
		M333.8,555.9l199-417.4c-6.6-3.6-13.8-7.3-21.6-11c-38.6-18.2-100.2-39.8-177.4-41.6V555.9L333.8,555.9z"/>
</g>
</svg>
