<?xml version="1.0" encoding="utf-8"?>
<!-- Generator: Adobe Illustrator 30.2.1, SVG Export Plug-In . SVG Version: 9.03 Build 0)  -->
<svg version="1.0" id="Calque_1" xmlns="http://www.w3.org/2000/svg" xmlns:xlink="http://www.w3.org/1999/xlink" x="0px" y="0px"
	 viewBox="0 0 647.8 790.6" style="enable-background:new 0 0 647.8 790.6;" xml:space="preserve">
<style type="text/css">
	.st0{fill:url(#SVGID_1_);}
	.st1{fill:url(#SVGID_00000029017813988407795510000009202517773056635582_);}
	.st2{fill:url(#SVGID_00000155104607314410696120000015705720248708129163_);}
	.st3{opacity:0.4;}
	.st4{fill:#25190E;}
	.st5{fill:url(#SVGID_00000035504318549572563620000018022130413958767505_);}
	.st6{fill:url(#SVGID_00000026154557538174443410000011040158618917067954_);}
	.st7{fill:url(#SVGID_00000114040981500968751990000002184171325535563394_);}
	.st8{opacity:0.8;}
	.st9{fill:url(#SVGID_00000099659858924752643730000010989821804014599831_);}
	.st10{fill:url(#SVGID_00000151501208543771681800000012344543066810844082_);}
	.st11{opacity:0.1;fill:url(#SVGID_00000153665123961338712730000000564998495218562467_);enable-background:new    ;}
</style>
<g>
	<g>
		<g>
			
				<linearGradient id="SVGID_1_" gradientUnits="userSpaceOnUse" x1="-92.3013" y1="2743.0256" x2="-628.4827" y2="3351.1497" gradientTransform="matrix(1 0 0 -1 702.3622 3369.6711)">
				<stop  offset="0" style="stop-color:#FAE778"/>
				<stop  offset="0.3" style="stop-color:#61420F"/>
				<stop  offset="0.6" style="stop-color:#F8ED9D"/>
				<stop  offset="0.7" style="stop-color:#D3C073"/>
				<stop  offset="0.8" style="stop-color:#6A4A11"/>
				<stop  offset="0.9" style="stop-color:#817543"/>
			</linearGradient>
			<path class="st0" d="M635.8,102.7c0,0-118.7-102.7-311.9-102.7S12,102.7,12,102.7S-93.9,573.4,323.9,790.6
				C741.7,573.4,635.8,102.7,635.8,102.7L635.8,102.7z M323.8,778.6C-81.3,568,21.3,111.6,21.3,111.6S136.5,12,323.8,12
				s302.5,99.6,302.5,99.6S729,568,323.8,778.6L323.8,778.6z"/>
			
				<linearGradient id="SVGID_00000127746390627793524290000006219959809842436494_" gradientUnits="userSpaceOnUse" x1="-93.6497" y1="2741.8279" x2="-629.8996" y2="3349.9517" gradientTransform="matrix(1 0 0 -1 702.3622 3369.6711)">
				<stop  offset="0" style="stop-color:#FAE778"/>
				<stop  offset="0.3" style="stop-color:#61420F"/>
				<stop  offset="0.6" style="stop-color:#F8ED9D"/>
				<stop  offset="0.7" style="stop-color:#D3C073"/>
				<stop  offset="0.8" style="stop-color:#6A4A11"/>
				<stop  offset="0.9" style="stop-color:#817543"/>
			</linearGradient>
			<path style="fill:url(#SVGID_00000127746390627793524290000006219959809842436494_);" d="M534.7,81.3
				c-45.4-21.4-118.8-46.9-210.8-46.9S158.4,59.9,113,81.3C78,97.8,53.7,114.5,42.4,123c-5.2,29.7-18.8,126.7,1.6,239.8
				c14.2,78.7,42,149.7,82.4,211.2c48,73,114.3,133,197.3,178.5C406.8,707,473.2,647,521.1,574c40.5-61.5,68.2-132.6,82.4-211.2
				c20.5-113.1,6.8-210.1,1.6-239.8c-11.3-8.5-35.5-25.2-70.6-41.8L534.7,81.3z"/>
		</g>
		
			<linearGradient id="SVGID_00000104665779302296969550000013167920316700884388_" gradientUnits="userSpaceOnUse" x1="-647.6519" y1="2977.3408" x2="-109.4084" y2="2977.3408" gradientTransform="matrix(1 0 0 -1 702.3622 3369.6711)">
			<stop  offset="0" style="stop-color:#594A20"/>
			<stop  offset="0" style="stop-color:#F2BA2C"/>
			<stop  offset="0.2" style="stop-color:#A56D1B"/>
			<stop  offset="0.4" style="stop-color:#A6661A"/>
			<stop  offset="0.5" style="stop-color:#DDCD93"/>
			<stop  offset="0.6" style="stop-color:#CB9B49"/>
			<stop  offset="0.8" style="stop-color:#BE7D19"/>
			<stop  offset="1" style="stop-color:#BFB67F"/>
		</linearGradient>
		<path style="fill:url(#SVGID_00000104665779302296969550000013167920316700884388_);" d="M523.1,101.9
			c-42.9-20.3-112.3-44.4-199.3-44.4s-156.4,24.1-199.3,44.4c-29,13.7-50.2,27.5-62,36c-5.1,31.9-15.9,121,2.5,223.2
			c13.5,74.7,39.8,142.1,78.1,200.4c44.2,67.2,104.9,122.9,180.6,165.6c75.8-42.7,136.5-98.4,180.6-165.6
			c38.3-58.3,64.6-125.7,78.1-200.4c18.5-102.2,7.7-191.2,2.5-223.2C573.3,129.4,552.1,115.6,523.1,101.9L523.1,101.9z"/>
		<g class="st3">
			<path class="st4" d="M523.1,101.9c-42.9-20.3-112.3-44.4-199.3-44.4s-156.4,24.1-199.3,44.4c-29,13.7-50.2,27.5-62,36
				c-5.1,31.9-15.9,121,2.5,223.2c13.5,74.7,39.8,142.1,78.1,200.4c44.2,67.2,104.9,122.9,180.6,165.6
				c75.8-42.7,136.5-98.4,180.6-165.6c38.3-58.3,64.6-125.7,78.1-200.4c18.5-102.2,7.7-191.2,2.5-223.2
				C573.3,129.4,552.1,115.6,523.1,101.9L523.1,101.9z"/>
		</g>
		
			<linearGradient id="SVGID_00000021828544064906715600000007222430827329917102_" gradientUnits="userSpaceOnUse" x1="-685.1562" y1="2648.4873" x2="-100.9903" y2="3474.2188" gradientTransform="matrix(1 0 0 -1 702.3622 3369.6711)">
			<stop  offset="0" style="stop-color:#FAE778"/>
			<stop  offset="0.3" style="stop-color:#61420F"/>
			<stop  offset="0.6" style="stop-color:#F8ED9D"/>
			<stop  offset="0.7" style="stop-color:#D3C073"/>
			<stop  offset="0.8" style="stop-color:#6A4A11"/>
			<stop  offset="0.9" style="stop-color:#817543"/>
		</linearGradient>
		<path style="fill:url(#SVGID_00000021828544064906715600000007222430827329917102_);" d="M630.6,107.5c0,0-116.7-101-306.7-101
			s-306.7,101-306.7,101S-87,570.4,323.8,784C734.7,570.4,630.6,107.5,630.6,107.5L630.6,107.5z M603.6,362.7
			c-14.2,78.7-42,149.7-82.4,211.2c-48,73-114.3,133-197.3,178.5C240.8,707,174.4,646.9,126.5,574C86,512.4,58.3,441.4,44.1,362.7
			c-20.5-113.1-6.9-210.1-1.6-239.8c11.3-8.4,35.5-25.2,70.6-41.8c45.4-21.4,118.8-46.9,210.8-46.9s165.4,25.5,210.8,46.9
			c35,16.6,59.3,33.3,70.6,41.8c5.2,29.6,18.8,126.6-1.6,239.8H603.6z"/>
	</g>
	
		<linearGradient id="SVGID_00000067214213365512958380000014973826653315229580_" gradientUnits="userSpaceOnUse" x1="-27.4678" y1="2782.2412" x2="-731.561" y2="3172.8259" gradientTransform="matrix(1 0 0 -1 702.3622 3369.6711)">
		<stop  offset="0" style="stop-color:#FAE778"/>
		<stop  offset="0.3" style="stop-color:#61420F"/>
		<stop  offset="0.6" style="stop-color:#F8ED9D"/>
		<stop  offset="0.7" style="stop-color:#D3C073"/>
		<stop  offset="0.8" style="stop-color:#6A4A11"/>
		<stop  offset="0.9" style="stop-color:#817543"/>
	</linearGradient>
	<path style="fill:url(#SVGID_00000067214213365512958380000014973826653315229580_);" d="M314,86c-77.1,1.7-138.7,23.3-177.4,41.6
		c-20.3,9.6-36.3,19.1-48,26.8c-5.2,38-11.6,114.7,4.2,201.8c12.8,70.9,37.7,134.8,73.9,190c37,56.2,86.4,104,147.2,142.4L314,86
		L314,86z"/>
	
		<linearGradient id="SVGID_00000140714871557673047090000015900698250652900263_" gradientUnits="userSpaceOnUse" x1="-228.5429" y1="2884.7764" x2="-828.5211" y2="3246.406" gradientTransform="matrix(1 0 0 -1 702.3622 3369.6711)">
		<stop  offset="0" style="stop-color:#FAE778"/>
		<stop  offset="0.3" style="stop-color:#61420F"/>
		<stop  offset="0.6" style="stop-color:#F8ED9D"/>
		<stop  offset="0.7" style="stop-color:#D3C073"/>
		<stop  offset="0.8" style="stop-color:#6A4A11"/>
		<stop  offset="0.9" style="stop-color:#817543"/>
	</linearGradient>
	<path style="fill:url(#SVGID_00000140714871557673047090000015900698250652900263_);" d="M306.9,675.4
		c-55-36.6-100.1-81.3-134.2-133.3c-35.7-54.4-60.2-117.3-72.9-187.4c-15.1-83.7-9.6-157.8-4.5-196.5c13.6-8.8,28.5-17,44.4-24.5
		C176,116.7,234.1,96,307,93.2L306.9,675.4L306.9,675.4z"/>
	<g class="st8">
		<path class="st4" d="M559,154.3c-11.6-7.7-27.7-17.2-48-26.8C472.4,109.3,410.8,87.8,333.7,86v602.4
			C394.5,650.1,444,602.3,480.9,546c36.2-55.1,61.1-119,73.9-190C570.5,269,564.2,192.3,559,154.3L559,154.3z"/>
	</g>
	
		<linearGradient id="SVGID_00000128485116165943091450000007017292410049701000_" gradientUnits="userSpaceOnUse" x1="-10.5387" y1="2812.7412" x2="-714.6318" y2="3203.3259" gradientTransform="matrix(1 0 0 -1 702.3622 3369.6711)">
		<stop  offset="0" style="stop-color:#594A20"/>
		<stop  offset="0" style="stop-color:#F2BA2C"/>
		<stop  offset="0.2" style="stop-color:#A56D1B"/>
		<stop  offset="0.4" style="stop-color:#A6661A"/>
		<stop  offset="0.5" style="stop-color:#DDCD93"/>
		<stop  offset="0.6" style="stop-color:#CB9B49"/>
		<stop  offset="0.8" style="stop-color:#BE7D19"/>
		<stop  offset="1" style="stop-color:#BFB67F"/>
	</linearGradient>
	<path style="fill:url(#SVGID_00000128485116165943091450000007017292410049701000_);" d="M559,154.3c-11.6-7.7-27.7-17.2-48-26.8
		C472.4,109.3,410.8,87.8,333.7,86v602.4C394.5,650.1,444,602.3,480.9,546c36.2-55.1,61.1-119,73.9-190
		C570.5,269,564.2,192.3,559,154.3L559,154.3z"/>
	
		<linearGradient id="SVGID_00000034076443058435863660000001854408649320414369_" gradientUnits="userSpaceOnUse" x1="-10.5387" y1="2812.7412" x2="-714.6318" y2="3203.3259" gradientTransform="matrix(1 0 0 -1 702.3622 3369.6711)">
		<stop  offset="0" style="stop-color:#594A20"/>
		<stop  offset="0" style="stop-color:#F2BA2C"/>
		<stop  offset="0.2" style="stop-color:#A56D1B"/>
		<stop  offset="0.4" style="stop-color:#A6661A"/>
		<stop  offset="0.5" style="stop-color:#DDCD93"/>
		<stop  offset="0.6" style="stop-color:#CB9B49"/>
		<stop  offset="0.8" style="stop-color:#BE7D19"/>
		<stop  offset="1" style="stop-color:#BFB67F"/>
	</linearGradient>
	<path style="fill:url(#SVGID_00000034076443058435863660000001854408649320414369_);" d="M559,154.3c-11.6-7.7-27.7-17.2-48-26.8
		C472.4,109.3,410.8,87.8,333.7,86v602.4C394.5,650.1,444,602.3,480.9,546c36.2-55.1,61.1-119,73.9-190
		C570.5,269,564.2,192.3,559,154.3L559,154.3z"/>
	<g class="st8">
		<path class="st4" d="M340.8,93.2c72.9,2.9,130.9,23.5,167.3,40.6c15.9,7.5,30.8,15.7,44.4,24.5c5.1,38.6,10.6,112.7-4.6,196.5
			c-12.7,70-37.2,133-72.9,187.4C441,594,395.8,638.8,340.8,675.4L340.8,93.2L340.8,93.2z"/>
	</g>
	<path class="st4" d="M559,154.3c-11.6-7.7-27.7-17.2-48-26.8C472.4,109.3,410.8,87.8,333.7,86v602.4
		C394.5,650.1,444,602.3,480.9,546c36.2-55.1,61.1-119,73.9-190C570.5,269,564.2,192.3,559,154.3L559,154.3z M547.9,354.9
		c-12.7,70-37.2,133-72.9,187.4c-34.1,51.9-79.2,96.7-134.2,133.3V93.2c72.9,2.9,130.9,23.5,167.3,40.6
		c15.9,7.5,30.8,15.7,44.4,24.5C557.6,196.9,563.1,271,547.9,354.9L547.9,354.9z"/>
	
		<linearGradient id="SVGID_00000181787767522018954200000002126046737321603774_" gradientUnits="userSpaceOnUse" x1="-269.7629" y1="3023.0273" x2="-501.6769" y2="3136.8623" gradientTransform="matrix(1 0 0 -1 702.3622 3369.6711)">
		<stop  offset="0" style="stop-color:#FFFFFF"/>
		<stop  offset="1" style="stop-color:#FFFFFF;stop-opacity:0"/>
	</linearGradient>
	<path style="opacity:0.1;fill:url(#SVGID_00000181787767522018954200000002126046737321603774_);enable-background:new    ;" d="
		M333.8,555.9l199-417.4c-6.6-3.6-13.8-7.3-21.6-11c-38.6-18.2-100.2-39.8-177.4-41.6V555.9L333.8,555.9z"/>
</g>
</svg>
